<?xml version="1.0" encoding="utf-8"?>
<!-- Generator: Adobe Illustrator 24.1.2, SVG Export Plug-In . SVG Version: 6.00 Build 0)  -->
<svg version="1.1" id="Capa_1" xmlns="http://www.w3.org/2000/svg" xmlns:xlink="http://www.w3.org/1999/xlink" x="0px" y="0px"
	 viewBox="0 0 119.4 30" style="enable-background:new 0 0 119.4 30;" xml:space="preserve">
<style type="text/css">
	.st0{fill:#15585A;}
	.st1{fill:#FFFFFF;}
</style>
<g>
	<path class="st0" d="M3,0h113.4c1.7,0,3,1.3,3,3v24c0,1.7-1.3,3-3,3H3c-1.7,0-3-1.3-3-3V3C0,1.3,1.3,0,3,0z"/>
	<g>
		<g>
			<path class="st1" d="M48.4,13.5c-0.2-0.2-0.4-0.4-0.7-0.5c-0.3-0.1-0.6-0.2-0.9-0.2c-0.2,0-0.4,0-0.6,0.1c-0.2,0-0.3,0.1-0.5,0.2
				c-0.2,0.1-0.3,0.2-0.4,0.3c-0.1,0.1-0.3,0.2-0.4,0.3l-0.1-0.5c-0.1-0.2-0.2-0.3-0.4-0.3h-0.9v6.2h1.5v-4.5
				c0.2-0.2,0.4-0.4,0.6-0.5c0.2-0.1,0.5-0.2,0.7-0.2c0.3,0,0.6,0.1,0.8,0.3c0.2,0.2,0.3,0.5,0.3,0.9v3.9h1.5v-3.9
				c0-0.3,0-0.7-0.1-0.9S48.6,13.7,48.4,13.5z M54.9,13.1c-0.3,0.2-0.6,0.5-0.8,0.9L54,13.3c0-0.1-0.1-0.2-0.1-0.3
				c-0.1-0.1-0.2-0.1-0.3-0.1h-0.9v6.2h1.5v-3.8c0.2-0.3,0.3-0.6,0.6-0.7c0.2-0.2,0.5-0.3,0.8-0.3c0.2,0,0.3,0,0.4,0s0.2,0,0.2,0
				c0.1,0,0.1,0,0.2,0s0.1-0.1,0.1-0.2l0.2-1.1c-0.2-0.1-0.5-0.2-0.8-0.2C55.5,12.8,55.2,12.9,54.9,13.1z M22.7,13.4
				c-0.2-0.2-0.4-0.4-0.7-0.5c-0.3-0.1-0.6-0.2-0.9-0.2c-0.2,0-0.4,0-0.6,0.1s-0.4,0.1-0.5,0.2c-0.2,0.1-0.3,0.2-0.5,0.4
				c-0.1,0.1-0.3,0.3-0.4,0.5c-0.1-0.3-0.3-0.6-0.6-0.8c-0.2-0.2-0.6-0.3-1-0.3c-0.2,0-0.4,0-0.5,0.1c-0.2,0-0.3,0.1-0.4,0.2
				c-0.1,0.1-0.3,0.2-0.4,0.3c-0.1,0.1-0.2,0.2-0.3,0.3l-0.1-0.5c-0.1-0.2-0.2-0.3-0.4-0.3h-0.9v6.2H16v-4.5
				c0.2-0.2,0.3-0.3,0.5-0.4c0.2-0.1,0.4-0.2,0.6-0.2c0.3,0,0.6,0.1,0.7,0.3c0.2,0.2,0.2,0.5,0.2,0.9v3.9h1.5v-3.9
				c0-0.2,0-0.4,0.1-0.5c0.1-0.1,0.1-0.3,0.2-0.4c0.1-0.1,0.2-0.2,0.3-0.2c0.1-0.1,0.3-0.1,0.4-0.1c0.3,0,0.6,0.1,0.8,0.3
				c0.2,0.2,0.3,0.5,0.3,0.9v3.9h1.5v-3.9c0-0.4,0-0.7-0.1-1C23,13.9,22.8,13.6,22.7,13.4z M41.6,13.6c-0.2-0.2-0.5-0.4-0.8-0.5
				c-0.3-0.1-0.7-0.2-1.1-0.2c-0.5,0-0.9,0.1-1.2,0.2c-0.4,0.2-0.7,0.4-0.9,0.7c-0.3,0.3-0.4,0.6-0.6,1c-0.1,0.4-0.2,0.8-0.2,1.2
				c0,0.5,0.1,1,0.2,1.4c0.2,0.4,0.4,0.8,0.6,1s0.6,0.5,1,0.6s0.8,0.2,1.2,0.2c0.2,0,0.4,0,0.7,0s0.5-0.1,0.7-0.2
				c0.2-0.1,0.4-0.2,0.6-0.3s0.4-0.3,0.6-0.5l-0.4-0.5c0,0-0.1-0.1-0.1-0.1c0,0-0.1,0-0.2,0c-0.1,0-0.2,0-0.3,0.1
				c-0.1,0.1-0.2,0.1-0.3,0.2c-0.1,0.1-0.3,0.1-0.5,0.2C40.4,18,40.1,18,39.9,18c-0.5,0-0.9-0.1-1.2-0.4c-0.3-0.3-0.5-0.8-0.5-1.4
				H42c0.1,0,0.1,0,0.2,0c0,0,0.1,0,0.1-0.1c0,0,0-0.1,0.1-0.2c0-0.1,0-0.2,0-0.3c0-0.4-0.1-0.8-0.2-1.2
				C42,14.1,41.8,13.8,41.6,13.6z M38.2,15.3c0.1-0.4,0.2-0.8,0.5-1c0.2-0.2,0.6-0.4,1-0.4c0.2,0,0.4,0,0.6,0.1s0.3,0.2,0.4,0.3
				c0.1,0.1,0.2,0.3,0.2,0.4c0.1,0.2,0.1,0.4,0.1,0.5H38.2z M33.8,12.9c-0.2-0.1-0.5-0.1-0.7-0.1c-0.4,0-0.7,0-1,0.1
				c-0.3,0.1-0.6,0.2-0.8,0.4c-0.2,0.2-0.4,0.4-0.5,0.6s-0.2,0.5-0.2,0.8c0,0.4,0.1,0.7,0.3,1c0.2,0.3,0.4,0.5,0.7,0.7
				c-0.1,0.1-0.3,0.1-0.4,0.2S31.1,16.9,31,17c-0.1,0.1-0.1,0.2-0.1,0.3c0,0.1,0,0.2,0,0.3c0,0.2,0,0.4,0.1,0.5
				c0.1,0.1,0.2,0.3,0.4,0.3c-0.3,0.1-0.6,0.3-0.7,0.5c-0.2,0.2-0.3,0.4-0.3,0.7c0,0.2,0.1,0.4,0.2,0.6c0.1,0.2,0.3,0.4,0.5,0.5
				c0.2,0.2,0.5,0.3,0.9,0.4c0.3,0.1,0.8,0.1,1.2,0.1c0.5,0,0.9-0.1,1.3-0.2c0.4-0.1,0.7-0.3,0.9-0.5c0.3-0.2,0.4-0.4,0.6-0.7
				c0.1-0.3,0.2-0.5,0.2-0.8c0-0.3-0.1-0.5-0.2-0.7c-0.1-0.2-0.3-0.3-0.5-0.4s-0.4-0.2-0.6-0.2c-0.2,0-0.5-0.1-0.7-0.1
				c-0.2,0-0.5,0-0.7,0s-0.4,0-0.6,0c-0.2,0-0.3-0.1-0.5-0.1c-0.1-0.1-0.2-0.2-0.2-0.3c0-0.1,0.1-0.3,0.3-0.4c0.2,0,0.4,0.1,0.7,0.1
				c0.3,0,0.7,0,1-0.1s0.5-0.2,0.8-0.4c0.2-0.2,0.4-0.4,0.5-0.6s0.2-0.5,0.2-0.8c0-0.1,0-0.2,0-0.4s-0.1-0.2-0.1-0.3l0.6-0.1
				c0.1,0,0.2-0.1,0.2-0.1s0.1-0.1,0.1-0.2v-0.6h-1.8C34.3,13,34.1,13,33.8,12.9z M32.2,18.7c0.2,0,0.4,0.1,0.6,0.1h0.6
				c0.2,0,0.4,0,0.5,0s0.3,0.1,0.4,0.1s0.2,0.1,0.3,0.2c0.1,0.1,0.1,0.2,0.1,0.3c0,0.1,0,0.2-0.1,0.3c-0.1,0.1-0.2,0.2-0.3,0.3
				c-0.1,0.1-0.3,0.1-0.5,0.2c-0.2,0-0.4,0.1-0.7,0.1c-0.3,0-0.5,0-0.7-0.1S32.1,20,32,20c-0.1-0.1-0.2-0.1-0.3-0.2
				c-0.1-0.1-0.1-0.2-0.1-0.3c0-0.2,0.1-0.3,0.2-0.4S32,18.8,32.2,18.7z M34.1,15.3c0,0.1-0.1,0.2-0.2,0.3c-0.1,0.1-0.2,0.2-0.3,0.2
				c-0.1,0-0.3,0.1-0.5,0.1c-0.2,0-0.3,0-0.5-0.1c-0.1,0-0.3-0.1-0.3-0.2s-0.2-0.2-0.2-0.3S32,15,32,14.8c0-0.3,0.1-0.5,0.3-0.7
				s0.5-0.3,0.8-0.3c0.4,0,0.6,0.1,0.8,0.3c0.2,0.2,0.3,0.4,0.3,0.7C34.2,15,34.1,15.1,34.1,15.3z M28.9,13.5
				c-0.2-0.2-0.4-0.4-0.7-0.5c-0.3-0.1-0.6-0.2-1-0.2c-1,0-1.9,0.3-2.6,1l0.3,0.5c0,0.1,0.1,0.1,0.2,0.2c0.1,0.1,0.2,0.1,0.3,0.1
				c0.1,0,0.2,0,0.3-0.1c0.1-0.1,0.2-0.1,0.3-0.2c0.1-0.1,0.3-0.1,0.4-0.2C26.6,14,26.8,14,27,14c0.3,0,0.6,0.1,0.8,0.3
				c0.2,0.2,0.3,0.5,0.3,0.9v0.4c-0.7,0-1.3,0.1-1.8,0.2c-0.5,0.1-0.9,0.3-1.1,0.5c-0.3,0.2-0.5,0.4-0.6,0.6s-0.2,0.5-0.2,0.7
				c0,0.3,0,0.5,0.1,0.7c0.1,0.2,0.2,0.4,0.4,0.5c0.2,0.1,0.3,0.2,0.6,0.3c0.2,0.1,0.5,0.1,0.7,0.1c0.2,0,0.4,0,0.6-0.1
				s0.4-0.1,0.5-0.2c0.2-0.1,0.3-0.2,0.5-0.3c0.1-0.1,0.3-0.2,0.5-0.4l0.1,0.4c0,0.1,0.1,0.2,0.2,0.3s0.2,0.1,0.3,0.1h0.7v-3.9
				c0-0.3-0.1-0.7-0.2-1S29.1,13.7,28.9,13.5z M28,17.5c-0.1,0.1-0.2,0.2-0.3,0.3s-0.2,0.1-0.3,0.2c-0.1,0.1-0.2,0.1-0.4,0.1
				c-0.1,0-0.3,0-0.4,0c-0.2,0-0.4-0.1-0.6-0.2c-0.2-0.1-0.2-0.3-0.2-0.6c0-0.1,0-0.3,0.1-0.4c0.1-0.1,0.2-0.2,0.4-0.3
				c0.2-0.1,0.4-0.2,0.7-0.2s0.7-0.1,1.1-0.1V17.5z M11.1,19.1h1.6v-8.7h-1.6V19.1z M98.6,19.1h1.5v-6.2h-1.5V19.1z M96.9,17.5
				c-0.1,0-0.2,0-0.2,0.1c-0.1,0.1-0.2,0.1-0.3,0.2c-0.1,0.1-0.2,0.1-0.4,0.2C95.8,18,95.6,18,95.4,18c-0.2,0-0.4,0-0.6-0.1
				c-0.2-0.1-0.3-0.2-0.5-0.4c-0.1-0.2-0.2-0.4-0.3-0.6c-0.1-0.3-0.1-0.5-0.1-0.9c0-0.3,0-0.6,0.1-0.8c0.1-0.2,0.2-0.5,0.3-0.6
				c0.1-0.2,0.3-0.3,0.5-0.4C95,14,95.2,14,95.4,14c0.2,0,0.4,0,0.5,0.1s0.3,0.1,0.4,0.2c0.1,0.1,0.2,0.1,0.3,0.2
				c0.1,0,0.1,0.1,0.2,0.1c0.1,0,0.1,0,0.2,0s0.1-0.1,0.1-0.1l0.4-0.5c-0.3-0.3-0.6-0.5-0.9-0.6c-0.3-0.1-0.7-0.2-1.2-0.2
				c-0.5,0-0.9,0.1-1.3,0.2s-0.7,0.4-0.9,0.7c-0.3,0.3-0.4,0.6-0.6,1c-0.1,0.4-0.2,0.8-0.2,1.3c0,0.5,0.1,1,0.2,1.3
				c0.1,0.4,0.3,0.7,0.6,1c0.2,0.3,0.5,0.5,0.9,0.6s0.7,0.2,1.1,0.2c0.2,0,0.4,0,0.7,0s0.4-0.1,0.6-0.2s0.4-0.2,0.6-0.3
				c0.2-0.1,0.4-0.3,0.5-0.5l-0.4-0.5C97.1,17.5,97,17.5,96.9,17.5z M62.1,13.6c-0.2-0.2-0.5-0.4-0.8-0.5c-0.3-0.1-0.7-0.2-1.1-0.2
				c-0.5,0-0.9,0.1-1.2,0.2c-0.4,0.2-0.7,0.4-0.9,0.7c-0.3,0.3-0.4,0.6-0.6,1c-0.1,0.4-0.2,0.8-0.2,1.2c0,0.5,0.1,1,0.2,1.4
				c0.2,0.4,0.4,0.8,0.6,1s0.6,0.5,1,0.6s0.8,0.2,1.2,0.2c0.2,0,0.4,0,0.7,0c0.2,0,0.5-0.1,0.7-0.2c0.2-0.1,0.4-0.2,0.6-0.3
				s0.4-0.3,0.6-0.5l-0.4-0.5c0,0-0.1-0.1-0.1-0.1c0,0-0.1,0-0.2,0c-0.1,0-0.2,0-0.3,0.1c-0.1,0.1-0.2,0.1-0.3,0.2
				c-0.1,0.1-0.3,0.1-0.5,0.2C60.8,18,60.6,18,60.4,18c-0.5,0-0.9-0.1-1.2-0.4c-0.3-0.3-0.5-0.8-0.5-1.4h3.8c0.1,0,0.1,0,0.2,0
				s0.1,0,0.1-0.1c0,0,0-0.1,0.1-0.2c0-0.1,0-0.2,0-0.3c0-0.4-0.1-0.8-0.2-1.2C62.5,14.1,62.3,13.8,62.1,13.6z M58.7,15.3
				c0.1-0.4,0.2-0.8,0.5-1c0.2-0.2,0.6-0.4,1-0.4c0.2,0,0.4,0,0.6,0.1s0.3,0.2,0.4,0.3c0.1,0.1,0.2,0.3,0.2,0.4
				c0.1,0.2,0.1,0.4,0.1,0.5H58.7z M106,13.5c-0.2-0.2-0.4-0.4-0.7-0.5s-0.6-0.2-1-0.2c-1,0-1.9,0.3-2.6,1l0.3,0.5
				c0,0.1,0.1,0.1,0.2,0.2s0.2,0.1,0.3,0.1c0.1,0,0.2,0,0.3-0.1c0.1-0.1,0.2-0.1,0.3-0.2c0.1-0.1,0.3-0.1,0.4-0.2
				c0.2-0.1,0.4-0.1,0.6-0.1c0.3,0,0.6,0.1,0.8,0.3c0.2,0.2,0.3,0.5,0.3,0.9v0.4c-0.7,0-1.3,0.1-1.8,0.2c-0.5,0.1-0.9,0.3-1.1,0.5
				c-0.3,0.2-0.5,0.4-0.6,0.6s-0.2,0.5-0.2,0.7c0,0.3,0,0.5,0.1,0.7c0.1,0.2,0.2,0.4,0.4,0.5c0.2,0.1,0.3,0.2,0.6,0.3
				c0.2,0.1,0.5,0.1,0.7,0.1c0.2,0,0.4,0,0.6-0.1c0.2,0,0.3-0.1,0.5-0.2s0.3-0.2,0.5-0.3c0.2-0.1,0.3-0.2,0.5-0.4l0.1,0.4
				c0,0.1,0.1,0.2,0.2,0.3s0.2,0.1,0.3,0.1h0.7v-3.9c0-0.3-0.1-0.7-0.2-1C106.3,13.9,106.2,13.7,106,13.5z M105.1,17.5
				c-0.1,0.1-0.2,0.2-0.3,0.3c-0.1,0.1-0.2,0.1-0.3,0.2c-0.1,0.1-0.2,0.1-0.4,0.1c-0.1,0-0.3,0-0.4,0c-0.2,0-0.4-0.1-0.6-0.2
				c-0.2-0.1-0.2-0.3-0.2-0.6c0-0.1,0-0.3,0.1-0.4c0.1-0.1,0.2-0.2,0.4-0.3c0.2-0.1,0.4-0.2,0.7-0.2s0.7-0.1,1.1-0.1V17.5z
				 M108.1,10.2v8.9h1.5v-8.9H108.1z M100,10.5c-0.1-0.1-0.2-0.2-0.3-0.2c-0.1,0-0.2-0.1-0.4-0.1c-0.1,0-0.2,0-0.4,0.1
				c-0.1,0.1-0.2,0.1-0.3,0.2s-0.2,0.2-0.2,0.3c0,0.1-0.1,0.2-0.1,0.4c0,0.1,0,0.2,0.1,0.4s0.1,0.2,0.2,0.3s0.2,0.2,0.3,0.2
				s0.2,0.1,0.4,0.1c0.1,0,0.3,0,0.4-0.1s0.2-0.1,0.3-0.2s0.2-0.2,0.2-0.3s0.1-0.2,0.1-0.4c0-0.1,0-0.3-0.1-0.4
				C100.2,10.6,100.1,10.5,100,10.5z M72.7,13.6c-0.2-0.2-0.5-0.4-0.8-0.5c-0.3-0.1-0.7-0.2-1.1-0.2c-0.5,0-0.9,0.1-1.2,0.2
				s-0.7,0.4-0.9,0.7c-0.3,0.3-0.4,0.6-0.6,1c-0.1,0.4-0.2,0.8-0.2,1.2c0,0.5,0.1,1,0.2,1.4c0.2,0.4,0.4,0.8,0.6,1
				c0.3,0.3,0.6,0.5,1,0.6s0.8,0.2,1.2,0.2c0.2,0,0.4,0,0.7,0c0.2,0,0.5-0.1,0.7-0.2s0.4-0.2,0.6-0.3s0.4-0.3,0.6-0.5L73,17.6
				c0,0-0.1-0.1-0.1-0.1c0,0-0.1,0-0.2,0c-0.1,0-0.2,0-0.3,0.1c-0.1,0.1-0.2,0.1-0.3,0.2c-0.1,0.1-0.3,0.1-0.5,0.2
				C71.4,18,71.2,18,71,18c-0.5,0-0.9-0.1-1.2-0.4c-0.3-0.3-0.5-0.8-0.5-1.4h3.8c0.1,0,0.1,0,0.2,0c0,0,0.1,0,0.1-0.1s0-0.1,0.1-0.2
				c0-0.1,0-0.2,0-0.3c0-0.4-0.1-0.8-0.2-1.2C73.1,14.1,72.9,13.8,72.7,13.6z M69.3,15.3c0.1-0.4,0.2-0.8,0.5-1s0.6-0.4,1-0.4
				c0.2,0,0.4,0,0.6,0.1s0.3,0.2,0.4,0.3c0.1,0.1,0.2,0.3,0.2,0.4s0.1,0.4,0.1,0.5H69.3z M65.6,10.4c-0.3,0.1-0.5,0.3-0.7,0.5
				c-0.2,0.2-0.4,0.4-0.5,0.7c-0.1,0.3-0.2,0.6-0.2,0.9V13h-0.9v0.6c0,0.1,0,0.2,0.1,0.3c0.1,0.1,0.2,0.1,0.3,0.1l0.5,0.1v5h1.5v-5
				h1.6V13h-1.6v-0.4c0-0.2,0-0.4,0.1-0.6s0.1-0.3,0.2-0.4c0.1-0.1,0.2-0.2,0.4-0.2s0.3-0.1,0.5-0.1c0.1,0,0.2,0,0.3,0
				c0.1,0,0.2-0.1,0.2-0.2l0-0.7c-0.2-0.1-0.5-0.1-0.8-0.1C66.2,10.3,65.9,10.3,65.6,10.4z M76.8,13.1c-0.3,0.2-0.6,0.5-0.8,0.9
				L76,13.3c0-0.1-0.1-0.2-0.1-0.3c-0.1-0.1-0.2-0.1-0.3-0.1h-0.9v6.2h1.5v-3.8c0.2-0.3,0.3-0.6,0.6-0.7c0.2-0.2,0.5-0.3,0.8-0.3
				c0.2,0,0.3,0,0.4,0c0.1,0,0.2,0,0.2,0c0.1,0,0.1,0,0.2,0s0.1-0.1,0.1-0.2l0.2-1.1c-0.2-0.1-0.5-0.2-0.8-0.2
				C77.4,12.8,77.1,12.9,76.8,13.1z M90.8,13.5c-0.2-0.2-0.4-0.4-0.7-0.5s-0.6-0.2-0.9-0.2c-0.2,0-0.4,0-0.6,0.1s-0.3,0.1-0.5,0.2
				c-0.2,0.1-0.3,0.2-0.4,0.3c-0.1,0.1-0.3,0.2-0.4,0.3l-0.1-0.5c-0.1-0.2-0.2-0.3-0.4-0.3H86v6.2h1.5v-4.5c0.2-0.2,0.4-0.4,0.6-0.5
				c0.2-0.1,0.5-0.2,0.7-0.2c0.3,0,0.6,0.1,0.8,0.3c0.2,0.2,0.3,0.5,0.3,0.9v3.9h1.5v-3.9c0-0.3,0-0.7-0.1-0.9S91,13.7,90.8,13.5z
				 M84,13.6c-0.2-0.2-0.5-0.4-0.8-0.5c-0.3-0.1-0.7-0.2-1.1-0.2c-0.5,0-0.9,0.1-1.2,0.2c-0.4,0.2-0.7,0.4-0.9,0.7
				c-0.3,0.3-0.4,0.6-0.6,1c-0.1,0.4-0.2,0.8-0.2,1.2c0,0.5,0.1,1,0.2,1.4s0.4,0.8,0.6,1c0.3,0.3,0.6,0.5,1,0.6s0.8,0.2,1.2,0.2
				c0.2,0,0.4,0,0.7,0c0.2,0,0.5-0.1,0.7-0.2c0.2-0.1,0.4-0.2,0.6-0.3s0.4-0.3,0.6-0.5l-0.4-0.5c0,0-0.1-0.1-0.1-0.1
				c0,0-0.1,0-0.2,0c-0.1,0-0.2,0-0.3,0.1c-0.1,0.1-0.2,0.1-0.3,0.2c-0.1,0.1-0.3,0.1-0.5,0.2C82.7,18,82.5,18,82.3,18
				c-0.5,0-0.9-0.1-1.2-0.4s-0.5-0.8-0.5-1.4h3.8c0.1,0,0.1,0,0.2,0s0.1,0,0.1-0.1c0,0,0-0.1,0.1-0.2c0-0.1,0-0.2,0-0.3
				c0-0.4-0.1-0.8-0.2-1.2C84.4,14.1,84.2,13.8,84,13.6z M80.6,15.3c0.1-0.4,0.2-0.8,0.5-1c0.2-0.2,0.6-0.4,1-0.4
				c0.2,0,0.4,0,0.6,0.1s0.3,0.2,0.4,0.3c0.1,0.1,0.2,0.3,0.2,0.4c0.1,0.2,0.1,0.4,0.1,0.5H80.6z"/>
		</g>
	</g>
</g>
</svg>
